<svg xmlns="http://www.w3.org/2000/svg" width="1600" height="1067" viewBox="0 0 1600 1067" role="img" aria-label="Informasjonsskilt og læring">
  <defs>
    <linearGradient id="bg3" x1="0" x2="0" y1="0" y2="1">
      <stop offset="0" stop-color="#eff6ff"/>
      <stop offset="0.5" stop-color="#fefce8"/>
      <stop offset="1" stop-color="#dcfce7"/>
    </linearGradient>
    <linearGradient id="wood" x1="0" x2="1" y1="0" y2="0">
      <stop offset="0" stop-color="#a16207"/>
      <stop offset="1" stop-color="#92400e"/>
    </linearGradient>
    <linearGradient id="panel" x1="0" x2="0" y1="0" y2="1">
      <stop offset="0" stop-color="#ffffff"/>
      <stop offset="1" stop-color="#f1f5f9"/>
    </linearGradient>
  </defs>

  <rect width="1600" height="1067" fill="url(#bg3)"/>
  <path d="M0 790 C300 700, 560 720, 850 800 C1120 874, 1340 900, 1600 835 L1600 1067 L0 1067 Z" fill="#16a34a" opacity="0.95"/>

  <g transform="translate(540 210)">
    <rect x="80" y="0" width="360" height="640" rx="28" fill="url(#wood)"/>
    <rect x="110" y="30" width="300" height="320" rx="18" fill="url(#panel)" stroke="#cbd5e1" stroke-width="6"/>
    <rect x="130" y="60" width="260" height="22" rx="11" fill="#0f172a" opacity="0.9"/>
    <rect x="130" y="98" width="210" height="18" rx="9" fill="#334155" opacity="0.7"/>
    <rect x="130" y="138" width="260" height="14" rx="7" fill="#64748b" opacity="0.55"/>
    <rect x="130" y="166" width="240" height="14" rx="7" fill="#64748b" opacity="0.55"/>
    <rect x="130" y="194" width="250" height="14" rx="7" fill="#64748b" opacity="0.55"/>

    <g transform="translate(150 240)">
      <circle cx="40" cy="40" r="22" fill="#fbbf24"/>
      <circle cx="40" cy="40" r="10" fill="#111827" opacity="0.85"/>
      <circle cx="120" cy="54" r="18" fill="#fb7185"/>
      <circle cx="120" cy="54" r="8" fill="#fbbf24"/>
      <circle cx="200" cy="40" r="18" fill="#60a5fa"/>
      <circle cx="200" cy="40" r="8" fill="#fbbf24"/>
    </g>

    <rect x="250" y="360" width="20" height="280" rx="10" fill="url(#wood)"/>
    <rect x="250" y="640" width="20" height="140" rx="10" fill="url(#wood)"/>
    <rect x="350" y="360" width="20" height="280" rx="10" fill="url(#wood)"/>
    <rect x="350" y="640" width="20" height="140" rx="10" fill="url(#wood)"/>
  </g>

  <g opacity="0.95">
    <g transform="translate(240 860)">
      <path d="M26 160 C42 122, 66 94, 96 68 C124 44, 156 24, 192 10" fill="none" stroke="#14532d" stroke-width="12" stroke-linecap="round"/>
      <circle cx="192" cy="10" r="10" fill="#14532d"/>
      <g transform="translate(188 -6)">
        <circle cx="0" cy="0" r="18" fill="#a78bfa"/>
        <circle cx="-22" cy="8" r="18" fill="#a78bfa"/>
        <circle cx="-6" cy="24" r="18" fill="#a78bfa"/>
        <circle cx="18" cy="20" r="18" fill="#a78bfa"/>
        <circle cx="22" cy="-2" r="18" fill="#a78bfa"/>
        <circle cx="0" cy="10" r="14" fill="#fbbf24"/>
      </g>
    </g>
    <g transform="translate(1320 850) scale(0.95)">
      <path d="M26 160 C40 124, 62 98, 90 72 C120 44, 150 26, 186 10" fill="none" stroke="#14532d" stroke-width="12" stroke-linecap="round"/>
      <circle cx="186" cy="10" r="10" fill="#14532d"/>
      <g transform="translate(182 -6)">
        <circle cx="0" cy="0" r="18" fill="#fb7185"/>
        <circle cx="-22" cy="8" r="18" fill="#fb7185"/>
        <circle cx="-6" cy="24" r="18" fill="#fb7185"/>
        <circle cx="18" cy="20" r="18" fill="#fb7185"/>
        <circle cx="22" cy="-2" r="18" fill="#fb7185"/>
        <circle cx="0" cy="10" r="14" fill="#fbbf24"/>
      </g>
    </g>
  </g>

  <g font-family="system-ui, -apple-system, Segoe UI, Roboto, sans-serif">
    <text x="80" y="140" font-size="54" font-weight="700" fill="#0f172a">Informasjonsskilt</text>
    <text x="80" y="190" font-size="26" fill="#334155">Læring og engasjement i felt</text>
  </g>
</svg>
